<svg width="209" height="163" viewBox="0 0 209 163" fill="none" xmlns="http://www.w3.org/2000/svg">
<path d="M104.5 0C110.28 0 114.95 4.55254 114.95 10.1875V30.5625H154.138C167.135 30.5625 177.65 40.8137 177.65 53.4844V140.078C177.65 152.749 167.135 163 154.138 163H54.8625C41.8653 163 31.35 152.749 31.35 140.078V53.4844C31.35 40.8137 41.8653 30.5625 54.8625 30.5625H94.05V10.1875C94.05 4.55254 98.7198 0 104.5 0ZM67.925 122.25C65.0513 122.25 62.7 124.542 62.7 127.344C62.7 130.145 65.0513 132.438 67.925 132.438H78.375C81.2488 132.438 83.6 130.145 83.6 127.344C83.6 124.542 81.2488 122.25 78.375 122.25H67.925ZM99.275 122.25C96.4013 122.25 94.05 124.542 94.05 127.344C94.05 130.145 96.4013 132.438 99.275 132.438H109.725C112.599 132.438 114.95 130.145 114.95 127.344C114.95 124.542 112.599 122.25 109.725 122.25H99.275ZM130.625 122.25C127.751 122.25 125.4 124.542 125.4 127.344C125.4 130.145 127.751 132.438 130.625 132.438H141.075C143.949 132.438 146.3 130.145 146.3 127.344C146.3 124.542 143.949 122.25 141.075 122.25H130.625ZM86.2125 81.5C86.2125 78.1226 84.8363 74.8836 82.3866 72.4954C79.9369 70.1073 76.6144 68.7656 73.15 68.7656C69.6856 68.7656 66.3631 70.1073 63.9134 72.4954C61.4637 74.8836 60.0875 78.1226 60.0875 81.5C60.0875 84.8774 61.4637 88.1164 63.9134 90.5046C66.3631 92.8927 69.6856 94.2344 73.15 94.2344C76.6144 94.2344 79.9369 92.8927 82.3866 90.5046C84.8363 88.1164 86.2125 84.8774 86.2125 81.5ZM135.85 94.2344C139.314 94.2344 142.637 92.8927 145.087 90.5046C147.536 88.1164 148.913 84.8774 148.913 81.5C148.913 78.1226 147.536 74.8836 145.087 72.4954C142.637 70.1073 139.314 68.7656 135.85 68.7656C132.386 68.7656 129.063 70.1073 126.613 72.4954C124.164 74.8836 122.788 78.1226 122.788 81.5C122.788 84.8774 124.164 88.1164 126.613 90.5046C129.063 92.8927 132.386 94.2344 135.85 94.2344ZM15.675 71.3125H20.9V132.438H15.675C7.02109 132.438 0 125.593 0 117.156V86.5938C0 78.1572 7.02109 71.3125 15.675 71.3125ZM193.325 71.3125C201.979 71.3125 209 78.1572 209 86.5938V117.156C209 125.593 201.979 132.438 193.325 132.438H188.1V71.3125H193.325Z" fill="#AE5013"/>
</svg>
